<?xml version="1.0" standalone="no"?>
<!DOCTYPE svg PUBLIC "-//W3C//DTD SVG 20010904//EN"
 "http://www.w3.org/TR/2001/REC-SVG-20010904/DTD/svg10.dtd">
<svg version="1.0" xmlns="http://www.w3.org/2000/svg"
 width="200.000000pt" height="200.000000pt" viewBox="0 0 200.000000 200.000000"
 preserveAspectRatio="xMidYMid meet">
<metadata>
Created by potrace 1.10, written by Peter Selinger 2001-2011
</metadata>
<g transform="translate(0.000000,200.000000) scale(0.100000,-0.100000)"
fill="#ffffff" stroke="none">
<path d="M766 1889 c-120 -9 -320 -40 -389 -59 l-38 -11 3 -548 3 -547 38 -77
c69 -139 266 -322 506 -471 144 -89 124 -88 237 -11 312 214 517 419 560 561
11 38 14 147 14 570 l0 523 -37 10 c-204 55 -616 82 -897 60z m339 -29 c-14
-6 -9 -7 20 -7 93 3 307 -14 390 -29 50 -10 103 -17 118 -17 20 0 24 -3 15 -8
-7 -5 -8 -9 -3 -10 6 0 1 -4 -10 -9 -18 -8 -17 -9 7 -9 l26 -1 -1 -415 c-2
-402 -3 -415 -21 -415 -11 0 -16 3 -13 7 4 3 0 15 -10 25 -15 17 -37 18 -283
18 -216 0 -270 -3 -279 -14 -16 -19 -61 -27 -61 -11 0 7 -7 16 -16 19 -9 3
-136 6 -283 6 -317 0 -298 7 -300 -115 -1 -44 -5 -91 -8 -104 -4 -17 -2 -22 6
-17 7 5 11 0 11 -13 0 -11 7 -26 15 -35 9 -8 12 -22 8 -32 -4 -11 -3 -15 5
-10 11 7 25 -9 29 -33 1 -8 7 -17 13 -21 7 -4 11 -10 11 -14 -3 -19 0 -26 10
-26 5 0 7 6 3 12 -4 7 2 5 12 -6 14 -13 15 -20 7 -23 -18 -6 -16 -23 1 -23 22
0 76 -49 55 -50 -22 0 -85 44 -81 59 1 6 -5 14 -13 17 -8 4 -15 15 -15 25 0
10 -6 18 -12 16 -7 -1 -26 25 -43 58 l-30 60 -5 528 c-4 464 -3 527 10 528 10
0 8 3 -5 9 -11 5 -15 9 -10 10 35 5 49 10 58 19 6 6 23 11 38 11 14 0 64 6
110 14 119 20 230 29 204 16 -17 -9 -17 -9 5 -4 25 7 172 18 280 20 35 1 48
-1 35 -6z m-120 -1260 c0 -198 -2 -360 -4 -360 -10 0 -260 172 -300 207 -189
162 -251 268 -251 428 l0 85 278 0 277 0 0 -360z m623 267 c-3 -80 -7 -101
-35 -157 -34 -70 -143 -191 -251 -280 -69 -56 -241 -180 -251 -180 -4 0 -5
601 -1 702 0 4 122 7 271 7 l271 0 -4 -92z m59 -2 c1 -71 -11 -86 -22 -29 -4
24 -2 39 5 44 8 5 6 9 -5 14 -14 5 -15 9 -5 21 21 26 26 17 27 -50z m3 -89 c0
-7 -10 -16 -22 -20 -20 -5 -21 -8 -8 -17 11 -8 12 -12 2 -16 -7 -2 -17 -14
-24 -26 l-11 -22 23 20 23 20 -19 -34 c-10 -19 -34 -50 -51 -69 -18 -19 -33
-41 -33 -48 0 -8 -5 -14 -11 -14 -5 0 -7 5 -3 12 4 7 3 8 -5 4 -6 -4 -9 -12
-6 -17 4 -5 0 -15 -7 -23 -16 -15 -58 -31 -58 -21 0 11 28 35 40 35 7 0 10 6
7 13 -2 7 11 23 29 37 18 14 32 30 30 35 -1 6 4 16 13 23 9 8 10 11 4 7 -9 -4
-11 -1 -6 11 6 15 7 15 21 -2 13 -17 14 -17 9 -1 -10 29 25 127 46 127 9 0 17
-6 17 -14z m-210 -295 c0 -5 -14 -24 -31 -41 -17 -17 -29 -24 -26 -15 4 8 3
15 -1 15 -4 0 -13 -13 -19 -30 -7 -18 -20 -31 -38 -36 -17 -4 -24 -11 -21 -20
3 -8 -1 -14 -9 -14 -8 0 -28 -14 -44 -31 -17 -18 -32 -26 -36 -20 -3 6 -11 11
-17 11 -7 0 -7 -4 0 -13 9 -10 4 -17 -18 -31 -17 -9 -35 -14 -41 -10 -7 4 -10
1 -7 -7 4 -13 -108 -95 -125 -91 -4 1 -16 4 -26 5 -29 4 -50 27 -44 45 4 13 3
14 -5 4 -7 -11 -16 -9 -45 7 -19 11 -38 17 -42 13 -4 -4 -5 0 -3 8 2 9 -6 16
-19 18 -36 5 -27 24 10 20 17 -1 34 -5 37 -8 12 -12 69 -40 83 -40 8 0 20 7
27 16 8 8 23 20 34 26 12 6 18 7 14 3 -4 -4 0 -14 8 -22 16 -16 63 -10 75 9 4
6 20 11 37 12 18 1 28 5 25 13 -3 7 9 21 26 31 17 10 28 22 23 27 -4 4 0 5 8
3 8 -3 14 -11 12 -17 -1 -7 2 -10 7 -6 6 3 8 12 5 19 -6 15 10 30 62 56 22 11
33 19 25 20 -19 0 27 50 46 50 7 0 13 5 13 11 0 6 7 8 16 5 8 -3 12 -2 9 4 -3
6 -1 10 4 10 6 0 11 -4 11 -9z m-832 -31 c12 -12 22 -25 22 -30 0 -5 7 -7 15
-4 11 5 13 2 9 -10 -5 -12 0 -16 20 -16 19 0 24 -4 20 -15 -4 -10 -13 -13 -26
-9 -32 10 -67 45 -61 60 3 10 -3 14 -20 14 -13 0 -30 7 -37 15 -20 24 32 19
58 -5z m106 -95 c-4 -8 -1 -15 5 -15 6 0 11 5 11 11 0 5 5 7 11 3 8 -4 7 -9
-2 -15 -10 -6 -7 -9 11 -10 14 -1 28 -1 32 0 4 0 5 -5 2 -13 -6 -15 -63 -16
-66 -1 0 6 -8 15 -16 21 -8 6 -12 16 -8 22 10 17 26 15 20 -3z m111 -65 c4 -6
-2 -11 -12 -12 -10 0 -25 -2 -33 -3 -19 -2 -32 4 -26 13 7 11 65 12 71 2z"/>
<path d="M1075 1744 c-13 -7 -26 -10 -28 -8 -2 3 -12 -23 -21 -56 -14 -48 -21
-60 -37 -60 -11 0 -33 -7 -48 -15 -16 -8 -31 -11 -35 -8 -3 4 -6 1 -6 -5 0 -7
-10 -12 -23 -12 -13 0 -54 -16 -91 -35 -38 -19 -79 -35 -92 -35 -17 0 -22 -4
-18 -15 4 -8 1 -15 -5 -15 -6 0 -11 -7 -11 -15 0 -8 -4 -15 -8 -15 -16 0 -6
-55 14 -76 21 -24 110 -72 143 -79 10 -2 37 -13 60 -25 35 -17 41 -25 36 -43
-6 -21 -6 -22 9 -3 16 19 16 19 16 -2 0 -12 -4 -22 -9 -22 -5 0 -7 -9 -4 -20
3 -12 0 -20 -7 -20 -6 0 -11 -10 -10 -22 1 -13 2 -34 1 -48 -1 -21 -3 -22 -12
-10 -9 13 -10 13 -6 0 2 -8 12 -15 23 -15 16 0 22 16 41 100 12 54 21 100 20
102 -1 1 -65 29 -142 62 l-140 59 -3 39 -2 38 142 58 c196 80 178 77 178 25
l0 -44 -92 -33 c-51 -19 -97 -37 -101 -41 -4 -4 33 -24 83 -45 50 -21 93 -36
95 -33 3 2 22 85 43 184 l38 179 37 3 c20 2 37 -1 37 -6 0 -5 -9 -35 -19 -68
-11 -32 -17 -62 -13 -65 6 -5 39 -19 210 -94 60 -27 62 -29 62 -65 l0 -37
-117 -48 c-65 -27 -135 -57 -155 -67 l-38 -18 0 50 c0 29 5 50 11 50 16 0 189
64 189 70 0 5 -145 66 -180 76 -12 4 -29 -42 -79 -213 -36 -120 -68 -223 -73
-230 -5 -6 -17 -9 -25 -6 -11 4 -14 2 -9 -5 17 -29 61 -2 84 51 6 15 16 27 22
27 6 0 8 5 4 11 -4 8 -9 7 -15 -2 -5 -8 -9 -9 -9 -3 0 6 7 17 15 24 12 10 15
10 15 0 0 -8 3 -11 6 -8 3 4 1 16 -6 27 -8 17 -8 25 3 36 8 8 18 11 22 7 4 -4
3 3 -4 15 -7 15 -8 24 -1 28 6 4 9 1 8 -7 -2 -8 4 -12 16 -10 10 2 22 -2 26
-9 6 -9 16 -6 38 10 17 11 37 21 46 21 9 0 29 9 44 20 15 10 39 21 53 24 38 6
119 45 119 57 0 6 4 8 9 5 5 -4 12 7 16 23 4 20 -1 41 -18 72 -14 24 -29 44
-34 45 -4 0 -26 9 -48 19 -22 10 -46 19 -53 19 -7 1 -16 6 -20 12 -4 6 -18 14
-32 17 -14 3 -33 12 -44 20 -17 12 -17 17 -5 53 7 21 17 45 23 52 5 7 6 15 2
19 -3 3 -6 0 -6 -7 0 -9 -7 -6 -20 8 -12 12 -25 22 -31 22 -6 0 -8 4 -5 8 8
13 -22 10 -49 -4z m-118 -312 c-15 -10 -24 -22 -20 -27 5 -4 -3 -2 -17 5 -31
16 -41 25 -18 17 9 -3 19 0 22 9 3 8 18 14 33 14 l28 0 -28 -18z m194 -5 c4
-5 12 -6 18 -3 6 4 11 2 11 -3 0 -10 -20 -15 -47 -12 -7 1 -13 -3 -13 -8 0 -6
-7 -8 -15 -5 -8 4 -15 1 -15 -7 0 -7 -2 -10 -5 -7 -3 2 0 19 6 37 9 26 15 30
33 25 11 -4 24 -11 27 -17z"/>
<path d="M540 871 c-8 -6 -18 -7 -24 -4 -5 3 -6 1 -2 -6 4 -6 12 -8 18 -5 7 5
9 1 5 -9 -4 -11 -1 -17 7 -17 8 0 14 11 14 25 0 14 -1 25 -2 25 0 0 -8 -4 -16
-9z"/>
<path d="M675 833 c-27 -8 -77 -21 -110 -28 l-60 -12 60 -17 c33 -9 85 -24
115 -34 l55 -18 105 34 c58 19 106 35 108 36 3 3 -209 57 -218 55 -3 0 -27 -7
-55 -16z m84 -37 c11 -8 13 -8 7 2 -4 7 -1 12 8 12 9 0 16 -6 16 -12 0 -10 2
-10 9 0 7 11 9 11 14 -2 5 -12 0 -16 -19 -16 -14 0 -23 -4 -19 -9 3 -5 0 -13
-6 -17 -8 -5 -9 -3 -4 6 6 10 2 11 -20 6 -24 -6 -27 -4 -21 11 6 17 5 17 -8 1
-15 -20 -31 -25 -20 -7 5 9 -2 10 -22 6 -28 -6 -28 -6 4 8 17 8 32 19 32 25 0
10 27 3 49 -14z"/>
<path d="M622 713 c10 -86 228 -87 228 -1 0 33 1 33 -60 7 l-49 -21 -56 21
c-69 26 -67 26 -63 -6z"/>
<path d="M500 701 c0 -6 6 -11 14 -11 8 0 16 -5 18 -11 3 -9 9 -9 25 0 12 6
30 8 40 4 17 -7 17 -6 0 11 -17 17 -20 17 -34 3 -14 -14 -18 -14 -39 0 -15 10
-24 11 -24 4z"/>
<path d="M523 654 c15 -16 20 -17 38 -6 18 11 24 11 39 -3 15 -14 18 -14 30 0
11 13 10 14 -4 9 -9 -3 -23 -1 -31 6 -12 10 -18 10 -31 -1 -13 -10 -19 -10
-37 0 -21 13 -21 13 -4 -5z"/>
<path d="M874 657 c-12 -14 0 -29 26 -35 10 -2 11 0 2 11 -9 10 -9 16 0 25 9
9 9 12 -2 12 -8 -1 -20 -6 -26 -13z"/>
<path d="M559 623 c-12 -16 -12 -17 2 -6 12 10 19 10 34 -1 11 -8 25 -12 32
-9 7 3 13 1 13 -5 0 -14 -28 -23 -35 -12 -4 6 -14 10 -23 9 -14 0 -14 -2 -2
-6 8 -3 18 -11 22 -17 5 -8 13 -7 28 2 15 9 26 10 41 2 15 -9 24 -8 35 1 13
10 20 10 36 0 18 -11 23 -10 42 10 l21 22 -24 -16 c-23 -15 -26 -15 -43 0 -16
15 -20 15 -35 0 -16 -14 -20 -14 -42 4 -13 11 -21 22 -17 26 3 3 14 -1 25 -11
16 -15 19 -15 31 -1 11 13 10 14 -4 9 -9 -3 -23 -1 -31 6 -12 10 -18 10 -29 1
-11 -9 -20 -9 -35 -2 -26 14 -26 14 -42 -6z"/>
<path d="M810 594 c0 -26 -46 -47 -72 -33 -14 7 -23 7 -33 -1 -10 -9 -19 -8
-36 0 -18 10 -24 9 -38 -6 -15 -17 -15 -17 2 -5 14 11 20 11 33 0 12 -10 20
-10 35 -1 15 9 23 9 38 0 15 -9 23 -9 35 1 11 9 20 10 36 1 12 -6 24 -9 28 -6
3 3 1 6 -4 6 -5 0 -11 12 -12 27 -2 31 -12 45 -12 17z"/>
<path d="M865 600 c-5 -9 -4 -11 3 -6 16 9 15 -7 0 -22 -7 -7 -8 -12 -2 -12 5
0 2 -5 -6 -10 -12 -8 -10 -9 8 -7 36 5 43 19 23 46 -14 18 -20 21 -26 11z"/>
<path d="M635 530 c-3 -5 0 -7 8 -4 8 3 19 -2 26 -10 11 -14 15 -14 36 0 20
13 24 13 35 0 10 -14 15 -13 36 1 14 9 22 18 20 21 -3 3 -13 -1 -22 -8 -13
-11 -19 -11 -36 -1 -16 10 -23 10 -38 -4 -15 -14 -18 -14 -30 0 -14 17 -26 19
-35 5z"/>
<path d="M867 516 c-4 -10 -3 -15 3 -11 6 3 10 1 10 -4 0 -6 -5 -11 -11 -11
-8 0 -7 -5 1 -15 7 -9 10 -18 6 -22 -3 -3 -6 -1 -6 5 0 7 -11 12 -25 12 -26 0
-34 15 -12 23 6 2 4 3 -5 2 -10 -2 -21 1 -24 6 -3 6 -15 4 -28 -5 -20 -12 -25
-13 -37 -1 -12 12 -18 11 -39 -7 l-25 -20 25 14 c21 13 27 13 38 2 11 -12 17
-11 37 2 20 13 25 14 25 3 0 -8 -9 -20 -20 -27 -16 -10 -24 -10 -40 0 -16 10
-22 10 -32 -1 -11 -11 -11 -13 0 -7 7 4 20 2 28 -5 12 -9 19 -9 38 0 12 7 38
11 57 9 30 -3 34 -6 34 -33 0 -16 4 -36 9 -44 7 -10 5 -12 -5 -6 -12 7 -12 6
-1 -6 11 -12 15 -11 23 4 8 13 17 16 32 11 25 -7 23 -5 -17 20 -19 12 -26 13
-21 5 6 -11 5 -11 -4 -3 -9 8 -9 17 0 37 7 15 16 27 21 27 5 0 7 -4 4 -9 -4
-5 5 -6 21 -2 15 4 28 13 29 19 1 7 0 8 -3 2 -6 -13 -43 -13 -43 -1 0 5 8 11
18 13 14 3 13 5 -6 10 -12 3 -20 2 -16 -3 3 -5 1 -9 -4 -9 -5 0 -13 10 -19 22
-8 19 -10 20 -16 4z"/>
<path d="M1213 897 c1 -23 7 -33 20 -34 9 -1 17 2 17 8 0 15 28 10 37 -6 7
-12 10 -11 21 5 12 19 9 20 -39 20 -46 0 -50 2 -44 20 4 11 2 20 -4 20 -6 0
-10 -15 -8 -33z"/>
<path d="M1450 876 c0 -24 18 -28 30 -6 9 17 8 20 -10 20 -11 0 -20 -6 -20
-14z"/>
<path d="M1510 875 c10 -12 16 -13 26 -4 11 9 18 8 29 -1 12 -10 15 -10 15 4
0 12 -10 16 -41 16 -36 0 -40 -2 -29 -15z"/>
<path d="M1105 730 c0 -90 0 -90 25 -90 24 0 26 3 22 35 -2 19 -2 35 1 35 3 0
14 -16 26 -35 15 -25 27 -35 46 -35 31 0 31 2 0 36 -25 27 -33 54 -15 54 5 0
12 11 16 25 10 40 -19 65 -75 65 l-46 0 0 -90z m78 48 c6 -19 -3 -38 -19 -38
-8 0 -14 10 -14 25 0 26 25 35 33 13z"/>
<path d="M1294 808 c-44 -21 -58 -98 -26 -138 14 -18 32 -24 73 -28 l55 -4 19
61 c10 33 21 58 25 56 8 -5 25 -93 22 -107 -1 -5 12 -8 29 -8 24 0 30 4 25 16
-3 8 -16 49 -27 90 -19 63 -25 74 -44 74 -18 0 -28 -14 -55 -75 -29 -66 -35
-75 -54 -69 -27 8 -36 22 -36 56 0 38 26 61 61 53 25 -6 29 -3 29 14 0 18 -6
21 -37 20 -21 0 -48 -5 -59 -11z"/>
<path d="M1201 607 c0 -10 -8 -20 -17 -24 -15 -5 -14 -7 1 -16 14 -8 15 -11 4
-18 -10 -6 -11 -9 -1 -9 19 0 14 -38 -5 -43 -17 -4 -17 -5 0 -6 9 0 17 -5 17
-10 0 -5 -8 -12 -17 -14 -17 -4 -17 -5 0 -6 20 -1 24 -37 5 -44 -10 -4 -9 -6
1 -6 11 -1 11 -4 1 -16 -11 -13 -10 -14 4 -9 9 3 16 10 16 15 0 4 7 5 17 2 10
-4 14 -2 10 4 -4 6 -2 13 5 15 9 3 9 6 0 12 -7 4 -12 2 -12 -3 0 -6 -5 -11
-11 -11 -6 0 -9 6 -6 14 3 7 0 19 -6 25 -6 6 -7 11 -1 11 6 0 15 -5 21 -11 7
-7 19 -8 30 -4 10 5 22 7 26 6 5 -1 6 3 2 9 -5 8 -11 8 -20 0 -16 -14 -48 -1
-41 16 3 8 2 14 -3 14 -5 0 -11 11 -13 24 -5 23 -4 23 81 21 47 -1 95 1 106 5
11 5 -20 7 -69 5 -57 -1 -98 2 -113 10 -14 7 -19 15 -13 17 7 2 10 13 7 23 -4
17 -5 17 -6 2z"/>
<path d="M1103 582 c-8 -5 -2 -13 17 -24 24 -13 29 -14 34 -2 7 17 -7 26 -30
17 -12 -4 -15 -3 -10 5 8 14 6 15 -11 4z"/>
<path d="M1227 580 c2 -3 47 -5 98 -5 51 0 91 2 88 5 -2 3 -47 5 -98 5 -51 0
-91 -2 -88 -5z"/>
<path d="M1227 520 c2 -3 36 -5 73 -5 38 -1 67 2 64 5 -3 2 -36 5 -74 5 -38 0
-66 -2 -63 -5z"/>
<path d="M1125 490 c-8 -13 3 -30 18 -30 7 0 13 9 13 20 0 21 -20 27 -31 10z"/>
<path d="M1249 490 c-6 -4 12 -6 40 -5 29 1 54 5 56 7 8 8 -83 5 -96 -2z"/>
<path d="M1134 406 c-3 -9 -9 -14 -13 -12 -18 12 -27 -10 -11 -27 17 -18 18
-18 17 0 -2 13 4 18 21 17 26 -2 27 2 7 22 -13 14 -16 14 -21 0z"/>
</g>
</svg>
