<?xml version="1.0" standalone="no"?>
<!DOCTYPE svg PUBLIC "-//W3C//DTD SVG 20010904//EN"
 "http://www.w3.org/TR/2001/REC-SVG-20010904/DTD/svg10.dtd">
<svg version="1.0" xmlns="http://www.w3.org/2000/svg"
 width="300.000000pt" height="244.000000pt" viewBox="0 0 300.000000 244.000000"
 preserveAspectRatio="xMidYMid meet">
<metadata>
Created by potrace 1.10, written by Peter Selinger 2001-2011
</metadata>
<g transform="translate(0.000000,244.000000) scale(0.100000,-0.100000)"
fill="#ffffff" stroke="none">
<path d="M1871 2290 c-79 -18 -135 -99 -128 -183 11 -130 169 -201 271 -123
53 40 69 77 64 152 -3 54 -9 68 -33 95 -51 53 -110 73 -174 59z m99 -27 c0 -5
13 -15 29 -24 60 -34 79 -129 38 -189 -51 -76 -150 -96 -216 -42 -85 69 -66
203 34 248 32 14 115 19 115 7z"/>
<path d="M2011 1833 c-36 -15 -143 -14 -190 2 -23 8 -24 6 -16 -21 17 -65 24
-168 25 -330 0 -153 -3 -183 -26 -270 -46 -179 -135 -342 -255 -469 -39 -41
-67 -75 -61 -75 17 0 138 107 223 198 172 182 267 382 303 632 17 121 39 341
34 344 -2 2 -18 -3 -37 -11z m4 -96 c-8 -145 -39 -344 -65 -425 -33 -99 -86
-209 -135 -278 -77 -108 -137 -164 -86 -80 22 36 88 199 95 236 2 14 12 63 21
110 16 82 17 247 1 430 -2 30 -3 58 -1 61 2 3 42 6 89 7 l84 1 -3 -62z"/>
<path d="M1382 1800 c-51 -31 -74 -76 -69 -136 4 -61 28 -97 83 -124 48 -24
71 -25 122 -5 112 45 123 202 20 265 -43 26 -113 26 -156 0z m145 -32 c18 -13
33 -31 33 -40 0 -10 4 -18 9 -18 13 0 2 -81 -15 -107 -19 -31 -62 -49 -107
-47 -79 3 -125 90 -92 175 10 26 69 59 104 59 20 0 49 -10 68 -22z"/>
<path d="M1122 1752 c-112 -57 -113 -58 -93 -76 11 -10 28 -38 37 -62 41 -108
-29 -214 -142 -214 -39 0 -124 35 -124 51 0 5 -6 9 -13 9 -16 0 -84 -133 -121
-238 -30 -86 -30 -82 -12 -82 38 0 118 -36 148 -67 30 -31 33 -40 33 -93 0
-91 -53 -149 -144 -158 -28 -2 -51 -5 -51 -6 7 -35 70 -220 74 -218 3 1 33 2
66 2 l60 0 -30 60 c-16 33 -30 62 -30 64 0 3 13 12 28 20 49 25 111 98 128
150 21 61 14 146 -14 203 -22 43 -80 99 -117 113 l-23 9 21 45 c19 41 23 45
46 38 14 -4 55 -7 91 -6 107 0 181 50 228 152 20 44 23 65 20 115 -3 34 -8 70
-13 80 -5 13 -2 17 13 17 16 0 20 9 25 50 3 27 13 61 23 75 9 14 12 25 8 24
-5 0 -60 -26 -122 -57z m52 -38 c4 -9 0 -27 -8 -40 -12 -17 -14 -38 -9 -87 10
-106 -38 -196 -125 -239 -39 -19 -61 -22 -125 -20 -93 4 -121 -10 -136 -65 -9
-33 -8 -41 15 -70 14 -18 28 -33 32 -33 35 0 111 -133 90 -157 -7 -9 -7 -13 0
-13 7 0 10 -18 9 -44 -1 -24 -5 -42 -9 -40 -3 2 -11 -10 -17 -27 -12 -35 -69
-99 -88 -99 -7 0 -13 -5 -13 -11 0 -6 -7 -17 -15 -25 -14 -15 -14 -52 0 -86 9
-23 -22 -36 -39 -17 -18 19 -49 126 -41 139 3 5 14 10 24 10 10 0 31 10 47 22
16 13 25 16 20 8 -7 -14 9 4 50 53 36 44 44 122 19 187 -7 19 -14 31 -14 27
-1 -4 -12 3 -24 17 -13 14 -27 23 -30 19 -4 -3 -9 1 -13 10 -3 9 -22 19 -41
23 -19 4 -37 12 -39 19 -7 17 68 207 92 234 1 2 23 -6 47 -18 63 -30 115 -30
179 3 66 33 91 74 92 149 0 72 -6 106 -21 111 -20 8 -15 37 7 43 11 3 20 9 20
13 0 5 10 11 23 13 12 2 25 5 28 6 4 0 10 -6 13 -15z"/>
<path d="M1545 1444 c-15 -12 -38 -15 -95 -11 -41 2 -84 7 -94 12 -16 7 -18 5
-13 -16 17 -66 38 -341 33 -413 -12 -150 -76 -286 -185 -395 -100 -100 -198
-150 -371 -190 -40 -9 -36 -10 36 -6 266 16 496 170 622 418 41 83 68 205 87
403 22 228 22 230 -20 198z m-6 -106 c-1 -137 -37 -360 -70 -439 -45 -106 -96
-179 -178 -253 -19 -17 -43 -39 -53 -49 -40 -38 -29 -3 14 43 42 46 89 125
118 202 40 105 45 206 24 468 -3 36 -6 67 -6 70 -1 17 10 20 77 20 l75 0 -1
-62z"/>
<path d="M2208 1384 c-27 -13 -48 -27 -48 -29 0 -3 14 -32 30 -65 17 -33 30
-62 30 -64 0 -3 -13 -12 -30 -21 -53 -28 -110 -96 -126 -153 -35 -119 29 -266
130 -303 l33 -12 -16 -48 c-12 -37 -20 -47 -31 -42 -38 16 -152 15 -197 -2
-62 -24 -128 -86 -149 -140 -16 -44 -17 -169 0 -205 5 -11 -5 -19 -38 -31
l-45 -16 -11 28 c-28 67 -120 131 -208 145 -94 15 -225 -55 -266 -141 l-17
-36 -58 31 -58 31 -61 -15 c-33 -9 -69 -16 -81 -16 -12 0 -21 -3 -21 -7 0 -17
330 -163 367 -163 2 0 3 10 3 23 0 81 65 169 133 182 91 17 177 -53 185 -151
4 -52 5 -54 31 -47 71 17 284 105 310 129 1 1 -11 20 -28 41 -56 70 -61 132
-17 200 53 80 185 86 256 11 11 -12 22 -20 24 -17 15 16 74 148 97 218 38 113
38 121 -7 121 -123 0 -198 137 -131 238 28 43 85 76 135 76 20 0 32 5 32 14 0
34 -90 264 -103 262 -1 -1 -23 -12 -49 -26z m45 -39 c9 -8 21 -32 28 -52 6
-21 14 -42 17 -48 3 -5 7 -23 9 -40 3 -29 -1 -33 -49 -56 -98 -46 -142 -137
-112 -231 20 -61 70 -103 156 -131 20 -7 14 -40 -26 -144 -35 -93 -49 -111
-69 -94 -23 19 -107 38 -147 33 -37 -4 -93 -33 -123 -64 -28 -28 -49 -98 -43
-140 4 -21 17 -57 31 -82 l24 -44 -55 -26 c-30 -14 -61 -26 -69 -26 -8 0 -15
-4 -15 -8 0 -8 -101 -36 -105 -30 -1 2 -14 30 -29 62 -15 33 -35 66 -44 73
-22 18 -92 55 -92 49 0 -3 -13 -1 -29 4 -18 5 -33 4 -40 -3 -5 -5 -18 -11 -28
-12 -53 -5 -124 -87 -127 -147 -1 -30 -25 -33 -77 -10 -24 11 -65 27 -92 37
-26 9 -45 21 -41 26 3 5 0 9 -7 9 -9 0 -9 3 0 14 13 16 56 6 96 -21 35 -23 60
-15 104 34 22 26 41 50 41 54 0 18 115 63 159 62 80 -1 184 -59 202 -113 19
-54 96 -64 139 -17 18 18 19 30 14 102 -8 103 4 141 62 198 62 62 139 81 236
58 35 -8 40 -6 62 20 13 16 27 43 31 61 7 29 3 35 -31 65 -47 41 -75 68 -90
85 -34 42 -46 170 -21 219 20 38 59 79 74 79 8 0 11 5 8 10 -3 6 -3 10 2 10
15 0 58 45 58 60 0 8 -10 35 -21 60 -16 32 -19 49 -12 58 14 16 23 15 41 -3z"/>
</g>
</svg>
