<svg version="1.1" id="Layer_1" xmlns="http://www.w3.org/2000/svg" xmlns:xlink="http://www.w3.org/1999/xlink" x="0px" y="0px"
	 width="100%" viewBox="0 0 96 88" enable-background="new 0 0 96 88" xml:space="preserve">
<path  opacity="1.000000" stroke="none" 
	d="
M97.000000,43.000000 
	C97.000000,58.309425 97.000000,73.618851 97.000000,88.964142 
	C65.073837,88.964142 33.147629,88.964142 1.110707,88.964142 
	C1.110707,59.786583 1.110707,30.572605 1.110707,1.000000 
	C17.685848,1.000000 34.374268,1.000000 51.430222,1.353489 
	C49.161488,5.467243 49.778580,8.509019 53.137405,11.744590 
	C62.247059,20.519955 70.980774,29.685493 80.087227,38.464314 
	C83.128273,41.395958 82.949768,43.604988 80.169014,46.352634 
	C72.591003,53.840408 65.065300,61.381592 57.567684,68.949974 
	C55.258854,71.280586 53.172272,71.510773 50.749023,69.065750 
	C41.140560,59.370930 31.474272,49.733292 21.804516,40.099453 
	C19.579250,37.882446 19.650297,35.809875 21.853907,33.645752 
	C24.585318,30.963278 27.241611,28.204243 29.976801,25.525705 
	C32.101158,23.445349 34.158974,21.526630 31.195244,18.467361 
	C28.296125,15.474786 25.835390,16.699242 23.487597,18.992048 
	C18.843328,23.527544 14.254331,28.121159 9.709192,32.756165 
	C5.950691,36.588978 5.976457,38.432880 9.905191,42.377052 
	C22.827421,55.350060 35.772179,68.300789 48.750797,81.217361 
	C52.615307,85.063400 54.403816,85.035339 58.355942,81.110428 
	C68.041069,71.491982 77.650391,61.797215 87.334526,52.177757 
	C90.485817,49.047504 93.774269,46.055325 97.000000,43.000000 
M40.996208,47.483906 
	C43.106804,49.596329 45.322254,51.615585 47.302242,53.844051 
	C49.954792,56.829475 52.405800,56.610176 55.098064,53.929146 
	C58.320274,50.720379 61.758835,47.724972 64.916985,44.456745 
	C69.068825,40.160179 68.963043,39.424858 64.494545,34.956802 
	C61.092770,31.555359 57.726013,28.117147 54.260349,24.781876 
	C51.342953,21.974236 48.330288,22.339579 46.017063,25.523809 
	C44.777348,27.230316 43.622086,29.148506 41.988472,30.393511 
	C33.062664,37.196022 32.812515,39.308197 40.996208,47.483906 
z"/>
<path fill="#9C9C9C" opacity="1.000000" stroke="none" 
	d="
M97.000000,42.625000 
	C93.774269,46.055325 90.485817,49.047504 87.334526,52.177757 
	C77.650391,61.797215 68.041069,71.491982 58.355942,81.110428 
	C54.403816,85.035339 52.615307,85.063400 48.750797,81.217361 
	C35.772179,68.300789 22.827421,55.350060 9.905191,42.377052 
	C5.976457,38.432880 5.950691,36.588978 9.709192,32.756165 
	C14.254331,28.121159 18.843328,23.527544 23.487597,18.992048 
	C25.835390,16.699242 28.296125,15.474786 31.195244,18.467361 
	C34.158974,21.526630 32.101158,23.445349 29.976801,25.525705 
	C27.241611,28.204243 24.585318,30.963278 21.853907,33.645752 
	C19.650297,35.809875 19.579250,37.882446 21.804516,40.099453 
	C31.474272,49.733292 41.140560,59.370930 50.749023,69.065750 
	C53.172272,71.510773 55.258854,71.280586 57.567684,68.949974 
	C65.065300,61.381592 72.591003,53.840408 80.169014,46.352634 
	C82.949768,43.604988 83.128273,41.395958 80.087227,38.464314 
	C70.980774,29.685493 62.247059,20.519955 53.137405,11.744590 
	C49.778580,8.509019 49.161488,5.467243 51.898880,1.353489 
	C53.714359,1.000000 55.428715,1.000000 57.642593,1.335485 
	C58.674839,2.498398 59.080429,3.452374 59.759258,4.134381 
	C71.029289,15.457112 82.317833,26.761620 93.660622,38.011337 
	C94.553200,38.896595 95.876747,39.347324 97.000000,40.000000 
	C97.000000,40.750000 97.000000,41.500000 97.000000,42.625000 
z"/>
<path opacity="1.000000" stroke="none" 
	d="
M97.000000,39.531342 
	C95.876747,39.347324 94.553200,38.896595 93.660622,38.011337 
	C82.317833,26.761620 71.029289,15.457112 59.759258,4.134381 
	C59.080429,3.452374 58.674839,2.498398 58.071053,1.335485 
	C70.926643,1.000000 83.853294,1.000000 97.000000,1.000000 
	C97.000000,13.686713 97.000000,26.374699 97.000000,39.531342 
z"/>
<path fill="#9C9C9C" opacity="1.000000" stroke="none" 
	d="
M40.741100,47.232967 
	C32.812515,39.308197 33.062664,37.196022 41.988472,30.393511 
	C43.622086,29.148506 44.777348,27.230316 46.017063,25.523809 
	C48.330288,22.339579 51.342953,21.974236 54.260349,24.781876 
	C57.726013,28.117147 61.092770,31.555359 64.494545,34.956802 
	C68.963043,39.424858 69.068825,40.160179 64.916985,44.456745 
	C61.758835,47.724972 58.320274,50.720379 55.098064,53.929146 
	C52.405800,56.610176 49.954792,56.829475 47.302242,53.844051 
	C45.322254,51.615585 43.106804,49.596329 40.741100,47.232967 
z"/>
</svg>