<?xml version="1.0" standalone="no"?>
<!DOCTYPE svg PUBLIC "-//W3C//DTD SVG 20010904//EN"
 "http://www.w3.org/TR/2001/REC-SVG-20010904/DTD/svg10.dtd">
<svg version="1.0" xmlns="http://www.w3.org/2000/svg"
 width="200.000000pt" height="200.000000pt" viewBox="0 0 300.000000 300.000000"
 preserveAspectRatio="xMidYMid meet">
<metadata>
Created by potrace 1.10, written by Peter Selinger 2001-2011
</metadata>
<g transform="translate(0.000000,300.000000) scale(0.100000,-0.100000)"
fill="#ffffff" stroke="none">
<path d="M1582 2774 l1 -69 6 60 6 59 29 -34 c93 -111 115 -249 62 -394 -24
-65 -40 -90 -90 -140 -38 -38 -89 -76 -134 -100 -67 -35 -112 -79 -112 -111 0
-5 9 4 19 21 13 22 48 47 109 79 84 45 157 103 189 152 11 16 24 22 53 21 23
0 50 8 67 20 41 29 195 103 202 96 3 -3 -1 -9 -9 -13 -38 -22 -110 -77 -110
-85 0 -4 10 -2 23 6 90 59 275 139 278 120 1 -4 0 -20 0 -37 -6 -118 -69 -264
-155 -363 -70 -79 -75 -115 -22 -168 29 -29 41 -34 79 -34 25 0 57 4 72 10 25
10 25 9 11 -18 -38 -74 -181 -190 -315 -257 -49 -25 -94 -51 -98 -58 -15 -25
-51 -37 -145 -47 -140 -14 -328 8 -328 40 0 5 -28 24 -62 41 -96 48 -178 99
-232 143 -48 41 -126 131 -126 147 0 5 26 6 58 3 47 -4 63 -2 90 15 33 22 52
55 52 95 0 12 -21 47 -47 77 -105 122 -158 234 -170 357 -9 96 -35 78 -28 -20
5 -71 -10 -23 -20 61 l-7 61 31 0 c25 0 30 -4 28 -21 -2 -18 8 -25 63 -44 71
-24 159 -66 202 -97 20 -14 26 -15 22 -5 -5 15 -86 77 -101 77 -4 0 -17 8 -28
16 -19 16 -19 16 5 9 20 -5 195 -82 209 -92 2 -1 -8 -29 -23 -62 -19 -42 -26
-74 -25 -112 l1 -54 8 50 c16 111 76 186 231 288 85 56 120 91 153 154 26 51
18 53 -10 3 -37 -65 -78 -105 -169 -165 -44 -28 -88 -61 -99 -73 l-18 -21 -97
48 c-53 27 -130 61 -171 75 -66 24 -220 66 -244 66 -24 0 21 -205 65 -297 34
-72 132 -200 178 -232 64 -46 26 -131 -58 -131 -47 1 -120 34 -148 68 -34 41
-28 9 14 -71 69 -130 205 -251 376 -333 39 -19 77 -34 84 -34 30 0 -18 -170
-72 -260 -46 -74 -59 -134 -52 -233 5 -86 42 -207 65 -215 18 -6 15 16 -13 97
-20 59 -24 88 -22 164 2 88 4 95 49 179 25 47 56 118 69 158 l22 72 43 -7 c41
-6 137 -16 159 -17 28 -1 143 12 157 17 23 9 58 -12 58 -35 0 -31 38 -124 83
-202 41 -70 42 -75 42 -163 0 -83 -12 -147 -38 -203 -7 -15 -7 -35 -1 -60 11
-44 22 -45 109 0 72 36 80 38 171 45 169 13 304 -88 287 -216 -12 -88 -103
-194 -191 -222 -59 -19 -181 -27 -267 -17 -77 8 -117 14 -122 18 -2 2 -6 3
-10 5 -53 14 -63 19 -60 28 1 5 34 19 72 30 54 15 103 20 212 21 183 1 189 9
23 31 -63 9 -187 -9 -306 -43 -55 -16 -126 -30 -158 -31 -31 0 -71 -8 -88 -17
-17 -9 -41 -14 -54 -11 -13 2 -21 1 -19 -3 6 -9 -30 -20 -68 -20 -15 0 -35 -4
-45 -10 -52 -29 -289 -32 -399 -5 -121 31 -188 76 -229 157 -30 59 -34 149
-10 196 48 92 208 137 351 98 51 -14 117 -45 123 -59 2 -4 7 -5 12 -2 9 6 71
-53 108 -100 12 -17 3 2 -20 42 -42 70 -45 73 -133 115 -89 42 -92 43 -195 43
-123 0 -187 -22 -244 -85 -82 -91 -59 -254 49 -349 84 -73 183 -101 366 -101
144 0 240 16 405 66 l113 34 103 -35 c140 -46 220 -58 347 -53 142 7 206 31
283 108 45 45 60 69 73 114 47 163 -65 292 -264 304 -89 5 -159 -11 -254 -60
-51 -25 -59 -27 -53 -11 75 194 73 322 -8 460 -34 57 -59 132 -69 203 l-5 36
76 34 c183 82 330 209 395 341 20 41 37 79 37 84 0 5 -15 -5 -32 -23 -92 -88
-228 -82 -228 11 0 26 10 42 47 78 106 101 171 207 204 337 10 41 19 97 19
123 l0 49 -32 -7 c-134 -25 -318 -96 -425 -163 -73 -46 -64 -43 -97 -31 l-24
10 20 53 c15 38 21 77 21 135 1 74 -2 88 -35 155 -20 40 -53 89 -72 107 l-36
35 2 -70z m644 -316 c-3 -29 -6 -56 -6 -60 0 -5 -4 -8 -10 -8 -5 0 -10 14 -10
32 0 17 -7 39 -16 49 -20 22 -10 39 23 39 25 0 25 -1 19 -52z"/>
<path d="M1107 1820 c39 -68 128 -92 194 -54 53 31 45 39 -44 39 -65 1 -91 5
-125 24 l-44 22 19 -31z"/>
<path d="M1865 1827 c-31 -17 -58 -21 -122 -22 -89 0 -97 -8 -44 -39 63 -37
148 -17 191 44 12 17 21 33 19 35 -2 2 -22 -6 -44 -18z"/>
<path d="M1570 1640 c0 -40 -113 -48 -167 -12 -14 9 -23 10 -23 3 0 -25 61
-43 124 -37 33 3 73 7 89 7 15 1 27 3 27 5 0 2 -11 14 -25 28 -23 23 -25 23
-25 6z"/>
<path d="M1007 735 c40 -56 108 -114 168 -141 78 -36 168 -41 351 -20 265 30
483 18 600 -33 36 -16 44 -17 33 -5 -31 38 -145 74 -231 74 l-41 0 24 27 24
27 -27 -17 c-30 -19 -174 -35 -164 -18 12 20 -12 20 -30 0 -14 -16 -26 -19
-54 -14 -19 3 -50 1 -67 -4 -20 -6 -33 -6 -33 -1 0 6 -10 6 -25 0 -22 -8 -155
-23 -195 -22 -51 2 -115 14 -127 23 -7 7 -13 8 -13 4 0 -4 -11 0 -25 9 -14 9
-25 14 -25 11 0 -3 -12 6 -27 20 -15 14 -31 25 -35 25 -5 0 -16 8 -26 18 -10
9 -31 28 -47 42 l-29 25 21 -30z"/>
</g>
</svg>
