<?xml version="1.0" encoding="UTF-8"?>
<svg version="1.1" xmlns="http://www.w3.org/2000/svg" width="225" height="225">
<path d="M0 0 C74.25 0 148.5 0 225 0 C225 74.25 225 148.5 225 225 C150.75 225 76.5 225 0 225 C0 150.75 0 76.5 0 0 Z M119 13 C118.89042969 13.79664063 118.78085938 14.59328125 118.66796875 15.4140625 C117.39502818 23.92103118 115.56974344 30.99507613 109 37 C106.22894454 38.90154539 103.41029106 40.6664704 100.5234375 42.38671875 C98.34701574 43.77814628 96.71755838 45.0922422 95 47 C91.46883597 45.63091145 88.02650403 44.10827894 84.58105469 42.53735352 C70.79544595 36.24271999 70.79544595 36.24271999 56 34 C55.16201252 46.36031526 59.4371091 57.30009985 67 67 C68.45211053 68.46482603 69.93050886 69.90419677 71.4375 71.3125 C74.93329118 74.59233496 74.93329118 74.59233496 75.5625 78.4375 C75 81 75 81 74 82 C68.25970597 82.38917248 65.09291952 81.91023972 60 79 C59.34 79 58.68 79 58 79 C61.61562469 91.65468641 71.08174885 99.54442578 82 106 C86.22637957 108.23515765 90.58920672 110.15916156 95 112 C93.55052217 118.63998893 91.38243973 124.5047337 88.375 130.5625 C82.77981558 142.11133066 83.67762116 150.25322533 87.765625 162.24609375 C89.0952276 165.64789616 89.88442364 166.92294909 93 169 C93.33 167.68 93.66 166.36 94 165 C94.66 165 95.32 165 96 165 C98.76016182 159.69109301 101.27011166 154.39282128 103.4375 148.8125 C105.56293161 143.55307211 108.14852043 140.12018745 112 136 C112 135.34 112 134.68 112 134 C115.37097383 132.50178941 117.20442119 132 121 132 C131.69566689 151.43847326 131.69566689 151.43847326 134 162 C136.38341898 161.04958706 137.72388597 160.46877569 139.046875 158.22265625 C142.09857611 148.8471523 142.0685554 140.05081181 138 131 C137.35542118 129.8003672 136.68931992 128.6119951 136 127.4375 C134.39488762 124.67871309 133.49747708 122.59896664 132.5625 119.625 C131.43321222 115.83222789 131.43321222 115.83222789 128.5 115 C127.675 115 126.85 115 126 115 C125.01 115 124.02 115 123 115 C123 115.66 123 116.32 123 117 C122.34 117 121.68 117 121 117 C119.37485532 118.45833358 119.37485532 118.45833358 118 120 C117.071875 119.67 116.14375 119.34 115.1875 119 C112.07970709 117.85032996 112.07970709 117.85032996 109 118 C109 117.34 109 116.68 109 116 C108.01 116 107.02 116 106 116 C106 115.34 106 114.68 106 114 C107.00417969 114.04640625 108.00835937 114.0928125 109.04296875 114.140625 C127.96395528 114.75263084 143.99603704 107.80943254 158 95 C162.33907615 90.72652543 166.05245837 85.8426249 168 80 C167.67 79.34 167.34 78.68 167 78 C166.01 78.66 165.02 79.32 164 80 C159.80471341 82.40951287 156.78088503 82.4861917 152 82 C150 80 150 80 149.875 76.875 C149.91625 75.92625 149.9575 74.9775 150 74 C150.66 74 151.32 74 152 74 C152 73.34 152 72.68 152 72 C152.5775 71.773125 153.155 71.54625 153.75 71.3125 C161.98218667 66.51039111 166.21142528 55.352524 168.6796875 46.5859375 C169.71944299 42.32721294 170.22604522 38.40788185 170 34 C158.56871988 34.89657099 148.49448618 38.92793783 138.46875 44.26977539 C134.99089871 46.10642796 131.91896995 47.49505579 128 48 C128 44 128 44 129 41 C129.69933251 31.16899869 129.25416521 23.69793494 122.875 16 C121.3865307 14.29696853 121.3865307 14.29696853 120 13 C119.67 13 119.34 13 119 13 Z M49 164 C45.58518563 168.1465603 44.74177057 172.73545158 45 178 C46.39756553 184.14558619 48.88893156 188.92364344 53.9453125 192.75390625 C68.05696326 201.3121127 85.67751872 200.40427752 101.22509766 196.71630859 C108.98404147 194.71342797 116.67110828 192.42653371 124.34960938 190.13696289 C125.01293777 189.93942917 125.67626617 189.74189545 126.35969543 189.53837585 C128.18750183 188.99243881 130.01407854 188.44238966 131.84057617 187.89208984 C136.35538182 186.61729656 140.38770329 185.87354419 145.08203125 185.90234375 C146.01337891 185.90556641 146.94472656 185.90878906 147.90429688 185.91210938 C148.86400391 185.92048828 149.82371094 185.92886719 150.8125 185.9375 C151.79154297 185.94201172 152.77058594 185.94652344 153.77929688 185.95117188 C156.18626111 185.96291316 158.59309857 185.97933581 161 186 C160.19195031 183.87881877 160.19195031 183.87881877 158.28173828 183.15722656 C150.87374723 180.72660045 143.71614886 180.60539296 136.01318359 180.71875 C133.87189229 180.75004542 131.73134192 180.75975118 129.58984375 180.765625 C122.97778408 180.80347847 116.54577089 181.06697252 110 182 C100.11516193 182.65196304 91.51486496 182.67657664 83 177 C84 174 84 174 87 172 C88.17778312 169.69628579 88.17778312 169.69628579 88 167 C84.09589437 162.03113828 79.14742895 159.2541203 73 158 C64.02510153 157.27531876 56.40210087 158.5012965 49 164 Z M141.25390625 162.41796875 C139.68942554 164.05539817 139.68942554 164.05539817 140 167 C141.71631911 167.97594616 143.43306636 168.95114979 145.15234375 169.921875 C147 171 147 171 149.25 172.5625 C152.83933483 174.4387432 156.5185402 175.24874629 160.4296875 176.25 C163.31334516 177.09143202 165.46840242 178.40109627 168 180 C170.93599586 181.24255539 173.85143011 182.46344596 177 183 C180.31881888 181.27327332 180.31881888 181.27327332 180.8125 177.75 C181.10331237 171.9337526 179.61004353 167.76659342 175.66015625 163.390625 C169.68531478 158.38581662 162.46766496 157.39904044 154.90625 157.671875 C149.96279009 158.23000757 145.1787109 159.23071128 141.25390625 162.41796875 Z " fill="#000000" transform="translate(0,0)"/>
<path d="M0 0 C0 3 0 3 -1.5 4.75 C-5.31948729 6.65974365 -7.85661776 5.88301589 -12 5 C-12.33 4.34 -12.66 3.68 -13 3 C-8.71 2.01 -4.42 1.02 0 0 Z " fill="#000000" transform="translate(140,88)"/>
</svg>
